<?xml version="1.0" standalone="no"?>
<!DOCTYPE svg PUBLIC "-//W3C//DTD SVG 1.0//EN" "http://www.w3.org/TR/2001/REC-SVG-20010904/DTD/svg10.dtd">
<svg xmlns="http://www.w3.org/2000/svg" xmlns:xlink="http://www.w3.org/1999/xlink" id="body_1" width="51" height="51">

<g transform="matrix(0.265625 0 0 0.265625 0 0)">
	<g>
        <path d="M80.77344 4.050781C 51.226562 9.300781 26.773438 27.449219 13.273438 54C 1.800781 76.80078 0.75 106.05078 10.574219 129.89844C 22.5 158.92578 48.976562 180.22656 79.80078 185.625C 88.19922 187.05078 102.89844 187.05078 111.22656 185.625C 123.97656 183.375 137.25 178.05078 147.97656 170.85156C 153.89844 166.875 167.625 153.22656 171.52344 147.30078C 182.10156 131.55078 187.5 113.92578 187.5 94.875C 187.5 70.5 179.02344 49.273438 162.14844 31.425781C 150.30078 18.824219 135.375 10.199219 117.60156 5.625C 108 3.148438 90.22656 2.398438 80.77344 4.050781zM94.94922 37.05078C 104.625 39.601562 115.5 48.523438 120.375 57.898438C 121.64844 60.30078 122.77344 62.25 123 62.25C 123.22656 62.25 125.17578 56.851562 127.35156 50.25L127.35156 50.25L131.32422 38.25L158.25 38.25L156.82422 41.773438C 156.07422 43.80078 150.89844 56.476562 145.42578 70.05078L145.42578 70.05078L135.44922 94.72656L136.80078 101.55078C 138.82422 111.52344 142.19922 121.57422 144.75 125.10156C 147.89844 129.44922 150.75 130.80078 156.14844 130.27344L156.14844 130.27344L160.57422 129.89844L160.35156 140.47656L160.125 151.125L155.625 152.10156C 149.32422 153.44922 141.375 152.85156 137.47656 150.89844C 131.02344 147.52344 125.77344 140.17578 122.25 129.375C 120.75 124.875 120.375 124.35156 119.69922 125.55078C 106.35156 148.5 88.57422 157.875 67.125 153.375C 52.875 150.375 41.17578 139.72656 35.17578 124.125C 28.425781 106.80078 29.625 80.85156 37.875 64.35156C 46.57422 47.101562 58.875 38.398438 78.375 35.69922C 81.89844 35.25 90.75 35.92578 94.94922 37.05078z" stroke="none" fill="#000000" fill-rule="nonzero" />
        <path d="M79.5 56.92578C 69.75 60.07422 62.17578 69.22656 58.80078 81.75C 57.148438 87.89844 56.92578 103.57422 58.42578 109.5C 60.75 118.875 65.77344 126.75 71.77344 130.27344C 76.94922 133.27344 84.67578 133.57422 90.30078 131.02344C 98.92578 127.05078 106.94922 115.5 112.125 99.60156L112.125 99.60156L114.14844 93.375L112.19922 86.02344C 108.67578 72.75 102.67578 63 95.47656 58.726562C 92.85156 57.226562 90.89844 56.69922 86.69922 56.55078C 83.77344 56.398438 80.55078 56.55078 79.5 56.92578z" stroke="none" fill="#000000" fill-rule="nonzero" />
	</g>
</g>
</svg>